<mxfile>
    <diagram id="NqyEXIyLS9vetp4fWozy" name="Page-1">
        <mxGraphModel dx="734" dy="437" grid="1" gridSize="10" guides="1" tooltips="1" connect="1" arrows="1" fold="1" page="1" pageScale="1" pageWidth="1169" pageHeight="827" math="0" shadow="0">
            <root>
                <mxCell id="0"/>
                <mxCell id="1" parent="0"/>
                <mxCell id="2" value="Set / Overwrite `__setattr__` method of decorated calss" style="whiteSpace=wrap;html=1;strokeColor=#FF8000;fillOpacity=0;shadow=0;sketch=1;fontColor=#6EA31D;" vertex="1" parent="1">
                    <mxGeometry x="130" y="140" width="190" height="60" as="geometry"/>
                </mxCell>
            </root>
        </mxGraphModel>
    </diagram>
</mxfile>